<svg xmlns="http://www.w3.org/2000/svg" width="111.416" height="99.126" viewBox="0 0 111.416 99.126">
  <path id="Heart-filled" d="M51.4,97.506c-4.5-3.934-8.841-7.636-12.67-10.9l-.022-.017C27.487,77.026,17.8,68.766,11.05,60.628,3.51,51.53,0,42.907,0,33.486A34.818,34.818,0,0,1,8.841,9.7,29.95,29.95,0,0,1,31.124,0,28.035,28.035,0,0,1,48.631,6.042a35.811,35.811,0,0,1,7.077,7.391,35.925,35.925,0,0,1,7.077-7.391A28.044,28.044,0,0,1,80.292,0a29.96,29.96,0,0,1,22.287,9.7,34.835,34.835,0,0,1,8.836,23.785c0,9.421-3.51,18.044-11.05,27.142-6.745,8.138-16.437,16.4-27.657,25.964-3.838,3.266-8.182,6.972-12.7,10.915a6.53,6.53,0,0,1-8.609,0Z" fill="#ff4141"/>
</svg>
