<svg xmlns="http://www.w3.org/2000/svg" width="548" height="375" viewBox="0 0 548 375">
  <g id="father_work_home" data-name="father work home" transform="translate(-243.989 -213.906)">
    <g id="Group_4946" data-name="Group 4946" transform="translate(243.989 229.728)">
      <path id="Path_4504" data-name="Path 4504" d="M767.245,370.156c36.778,54.763,59.85,138.85-16.265,164s-91.528-30.254-127.873,3.143-42.168,94.811-122.85,91.668S306.187,532.3,311.036,491.717c6.943-58.122,129.093-33.041,172.176-92.6,30.786-42.557,10.5-113.285,80.526-125.858S724.576,306.619,767.245,370.156Z" transform="translate(-292.406 -271.18)" fill="#f5f9fb"/>
      <ellipse id="Ellipse_102" data-name="Ellipse 102" cx="274" cy="20.942" rx="274" ry="20.942" transform="translate(0 317.293)" fill="#d7e5ee"/>
    </g>
    <g id="Group_4966" data-name="Group 4966" transform="translate(277.455 213.906)">
      <path id="Rectangle_690" data-name="Rectangle 690" d="M0,0H104.972a0,0,0,0,1,0,0V0a5.925,5.925,0,0,1-5.925,5.925H5.925A5.925,5.925,0,0,1,0,0V0A0,0,0,0,1,0,0Z" transform="translate(0 87.024)" fill="#0d2229"/>
      <g id="Group_4956" data-name="Group 4956" transform="translate(51.202 70.614)">
        <rect id="Rectangle_691" data-name="Rectangle 691" width="43.595" height="8.87" transform="translate(0 7.518)" fill="#92bbd1"/>
        <rect id="Rectangle_692" data-name="Rectangle 692" width="43.595" height="7.495" transform="translate(4.409)" fill="#d7e5ee"/>
      </g>
      <g id="Group_4965" data-name="Group 4965" transform="translate(8.89 0)">
        <g id="Group_4958" data-name="Group 4958">
          <path id="Path_4510" data-name="Path 4510" d="M488.555,213.906s-27.5,27.19-19.144,63.32C469.411,277.226,484.726,280.579,488.555,213.906Z" transform="translate(-448.352 -213.906)" fill="#92bbd1"/>
          <path id="Path_4511" data-name="Path 4511" d="M449.658,258.006s-5.366,22.761-3.394,35.155c1.827,11.486,3.916,16.011,3.916,16.011s7.135-5.917,6.265-19.666S449.658,258.006,449.658,258.006Z" transform="translate(-432.428 -245.824)" fill="#d7e5ee"/>
          <path id="Path_4512" data-name="Path 4512" d="M489.3,350.359s2.088-22.45,19.318-33.763c0,0-3.829,7.483-4.525,13.4S499.046,345.834,489.3,350.359Z" transform="translate(-463.89 -288.229)" fill="#d7e5ee"/>
          <g id="Group_4957" data-name="Group 4957" transform="translate(0 28.543)">
            <path id="Path_4513" data-name="Path 4513" d="M408.543,352.21c-10.441-8.876-11.226-34.979-11.226-34.979C411.938,341.769,408.543,352.21,408.543,352.21Z" transform="translate(-397.317 -317.231)" fill="#d7e5ee"/>
            <path id="Path_4514" data-name="Path 4514" d="M408.543,352.21c-10.441-8.876-11.226-34.979-11.226-34.979Z" transform="translate(-397.317 -317.231)" fill="#d7e5ee"/>
          </g>
        </g>
        <g id="Group_4964" data-name="Group 4964" transform="translate(5.099 59.315)">
          <g id="Group_4959" data-name="Group 4959">
            <path id="Path_4515" data-name="Path 4515" d="M446.828,430.622l-1.2,7.6-.168,1.058-.378,2.389-.226,1.416v0l-2.24,14.15H422.328l-2.191-13.824-.251-1.584-.4-2.549-.168-1.058-1.2-7.6Z" transform="translate(-417.467 -430.071)" fill="#fff" stroke="rgba(0,0,0,0)" stroke-width="1"/>
            <path id="Path_4516" data-name="Path 4516" d="M441.392,456.348H420.167l-4.391-27.721h30.006Zm-20.284-1.1H440.45l4.041-25.516H417.067Z" transform="translate(-415.776 -428.627)" fill="#24598c"/>
          </g>
          <g id="Group_4961" data-name="Group 4961" transform="translate(1.85 8.154)">
            <g id="Group_4960" data-name="Group 4960">
              <path id="Path_4517" data-name="Path 4517" d="M448.779,458.143l-.168,1.058H422.64l-.168-1.058Z" transform="translate(-422.471 -458.143)" fill="#24598c" stroke="rgba(0,0,0,0)" stroke-width="1"/>
            </g>
          </g>
          <g id="Group_4963" data-name="Group 4963" transform="translate(2.42 11.438)">
            <g id="Group_4962" data-name="Group 4962">
              <path id="Path_4518" data-name="Path 4518" d="M449.727,470.2l-.226,1.416v0l-2.954,2.444-3.2-2.648-3.2,2.648-3.2-2.648-3.2,2.648-3.2-2.648-3.2,2.648-2.56-2.119-.251-1.584,2.811,2.328,3.2-2.651,3.2,2.651,3.2-2.651,3.2,2.651,3.2-2.651,3.2,2.651,2.863-2.37A.515.515,0,0,1,449.727,470.2Z" transform="translate(-424.536 -470.033)" fill="#24598c" stroke="rgba(0,0,0,0)" stroke-width="1"/>
            </g>
          </g>
        </g>
      </g>
    </g>
    <g id="Group_4974" data-name="Group 4974" transform="translate(531.76 229.842)">
      <g id="Group_4967" data-name="Group 4967" transform="translate(0 43.356)">
        <path id="Path_4519" data-name="Path 4519" d="M1292.329,434.466h93.121a5.925,5.925,0,0,0,5.925-5.925H1286.4A5.925,5.925,0,0,0,1292.329,434.466Z" transform="translate(-1286.404 -428.541)" fill="#0d2229"/>
      </g>
      <g id="Group_4969" data-name="Group 4969" transform="translate(61.122 0)">
        <rect id="Rectangle_693" data-name="Rectangle 693" width="39.21" height="8.87" transform="translate(0 43.619) rotate(-90)" fill="#d7e5ee"/>
        <g id="Group_4968" data-name="Group 4968" transform="translate(15.175 2.381)">
          <rect id="Rectangle_694" data-name="Rectangle 694" width="39.21" height="8.87" transform="translate(9.664 40.863) rotate(-103.271)" fill="#fff" stroke="rgba(0,0,0,0)" stroke-width="1"/>
          <path id="Path_4520" data-name="Path 4520" d="M1571.854,321.738,1562.6,282.5l9.706-2.289,9.254,39.236Zm-7.928-38.416,8.748,37.09,7.56-1.783-8.748-37.09Z" transform="translate(-1562.6 -280.212)" fill="#92bbd1" stroke="rgba(0,0,0,0)" stroke-width="1"/>
        </g>
        <rect id="Rectangle_695" data-name="Rectangle 695" width="43.595" height="7.496" transform="translate(8.893 43.595) rotate(-90)" fill="#92bbd1"/>
      </g>
      <g id="Group_4973" data-name="Group 4973" transform="translate(14.641 11.289)">
        <g id="Group_4970" data-name="Group 4970" transform="translate(0 7.167)">
          <path id="Path_4521" data-name="Path 4521" d="M1339.4,363.275h4.453l5.588-24.87h-3.733Z" transform="translate(-1339.405 -338.405)"/>
        </g>
        <g id="Group_4972" data-name="Group 4972" transform="translate(3.84)">
          <path id="Path_4523" data-name="Path 4523" d="M1386.113,344.5h-28.371l-4.438-32.038h28.371Z" transform="translate(-1353.304 -312.459)" fill="#0d2229"/>
          <g id="Group_4971" data-name="Group 4971" transform="translate(1.544 1.546)" opacity="0.5" style="mix-blend-mode: multiply;isolation: isolate">
            <path id="Path_4524" data-name="Path 4524" d="M1388.614,347H1362.9l-4.009-28.945H1384.6Zm-25.155-.638h24.424l-3.833-27.669h-24.424Z" transform="translate(-1358.894 -318.057)" fill="#0d2229"/>
          </g>
          <path id="Path_4525" data-name="Path 4525" d="M1395.389,353.555h-18.468l-2.889-20.855H1392.5Z" transform="translate(-1368.306 -327.109)" fill="#fff"/>
        </g>
      </g>
    </g>
    <g id="Group_4996" data-name="Group 4996" transform="translate(261.385 331.663)">
      <g id="Group_4987" data-name="Group 4987" transform="translate(0 0)">
        <g id="Group_4975" data-name="Group 4975" transform="translate(57.184)">
          <path id="Path_4526" data-name="Path 4526" d="M514.759,804.736a231.633,231.633,0,0,1,2.306-56.841,242.863,242.863,0,0,1,13.023-47.871,225.878,225.878,0,0,1,17.7-36.187c5.539-9.042,11.355-16.788,16.377-21.809l.739.739c-8.734,8.734-22.838,29.068-33.845,57.633-8.994,23.341-18.943,60.375-15.263,104.249Z" transform="translate(-513.965 -642.028)" fill="#24598c" stroke="rgba(0,0,0,0)" stroke-width="1"/>
        </g>
        <g id="Group_4976" data-name="Group 4976" transform="translate(16.971 96.629)">
          <path id="Path_4527" data-name="Path 4527" d="M397.453,1058.132l-1.044-.029a112.51,112.51,0,0,0-3.038-25.912,81.337,81.337,0,0,0-8.275-21.622,49.731,49.731,0,0,0-16.7-17.859l.552-.887a50.771,50.771,0,0,1,17.061,18.238,82.422,82.422,0,0,1,8.383,21.912A113.576,113.576,0,0,1,397.453,1058.132Z" transform="translate(-368.396 -991.823)" fill="#24598c" stroke="rgba(0,0,0,0)" stroke-width="1"/>
        </g>
        <g id="Group_4982" data-name="Group 4982" transform="translate(13.239 6.911)">
          <g id="Group_4977" data-name="Group 4977" transform="translate(0.889 0.97)">
            <path id="Path_4528" data-name="Path 4528" d="M394.938,824.979l-1.026-.2a183.45,183.45,0,0,0,1.406-60.262,210.8,210.8,0,0,0-13.081-48.763c-10.9-27.342-24-44.39-24.132-44.559l.826-.64c.132.17,13.307,17.311,24.264,44.779a211.851,211.851,0,0,1,13.155,49.016A184.5,184.5,0,0,1,394.938,824.979Z" transform="translate(-358.104 -670.557)" fill="#24598c" stroke="rgba(0,0,0,0)" stroke-width="1"/>
          </g>
          <g id="Group_4978" data-name="Group 4978">
            <path id="Path_4529" data-name="Path 4529" d="M391.43,750.459l-.216-.02a52.854,52.854,0,0,1-13.132-3.378c-9.2-3.69-15.591-9.541-18.481-16.921-2.9-7.405-4.479-20.146-4.691-37.87-.158-13.175.543-24.329.549-24.44l.05-.787.7.352c16.541,8.273,29.12,17.113,37.388,26.274,6.936,7.685,10.928,15.682,11.863,23.767,1.164,10.064-2.669,18.469-6.091,23.748a43.653,43.653,0,0,1-7.778,9.135Zm-34.974-81.772c-.154,2.767-.635,12.449-.5,23.578.208,17.346,1.805,30.311,4.619,37.494,3.512,8.967,11.657,13.825,17.872,16.322a52.471,52.471,0,0,0,12.647,3.294,44.38,44.38,0,0,0,7.426-8.788c3.32-5.132,7.039-13.294,5.908-23.039-.912-7.864-4.817-15.664-11.605-23.183C384.759,685.434,372.526,676.8,356.457,668.687Z" transform="translate(-354.887 -667.044)" fill="#24598c" stroke="rgba(0,0,0,0)" stroke-width="1"/>
          </g>
          <g id="Group_4979" data-name="Group 4979" transform="translate(31.039 39.099)">
            <path id="Path_4530" data-name="Path 4530" d="M467.772,832.426a.535.535,0,0,1-.1-.01.523.523,0,0,1-.409-.615c.026-.127,2.62-12.805,7.814-22.934a.522.522,0,0,1,.93.477c-5.129,10-7.694,22.538-7.719,22.663A.523.523,0,0,1,467.772,832.426Z" transform="translate(-467.248 -808.582)" fill="#24598c" stroke="rgba(0,0,0,0)" stroke-width="1"/>
          </g>
          <g id="Group_4980" data-name="Group 4980" transform="translate(11.656 41.1)">
            <path id="Path_4531" data-name="Path 4531" d="M411.7,823.484a.521.521,0,0,1-.331-.119,31.4,31.4,0,0,0-13.839-6.5.522.522,0,1,1,.148-1.034,31.929,31.929,0,0,1,14.354,6.727.522.522,0,0,1-.331.926Z" transform="translate(-397.082 -815.826)" fill="#24598c" stroke="rgba(0,0,0,0)" stroke-width="1"/>
          </g>
          <g id="Group_4981" data-name="Group 4981" transform="translate(17.076 14.473)">
            <path id="Path_4532" data-name="Path 4532" d="M417.853,735.144a.523.523,0,0,1-.519-.462c-.048-.414-1.174-10.183-.3-14.82a.522.522,0,0,1,1.027.194c-.846,4.482.3,14.405.31,14.5a.523.523,0,0,1-.52.583Z" transform="translate(-416.703 -719.437)" fill="#24598c" stroke="rgba(0,0,0,0)" stroke-width="1"/>
          </g>
        </g>
        <g id="Group_4984" data-name="Group 4984" transform="translate(65.866 77.433)">
          <g id="Group_4983" data-name="Group 4983" transform="translate(0 0.385)">
            <path id="Path_4533" data-name="Path 4533" d="M545.413,1010.464c-1.059-53.932,44.744-85.423,46.695-86.737l.584.867a117.788,117.788,0,0,0-24.083,23.253,108.313,108.313,0,0,0-15.588,26.771,91.638,91.638,0,0,0-6.562,35.827Z" transform="translate(-545.395 -923.727)" fill="#24598c"/>
          </g>
          <path id="Path_4534" data-name="Path 4534" d="M604.3,922.334s-6.894,11.652-13.879,36.6c-3.594,12.838-26.34,12.833-26.34,12.833s-9.821-12.409,1.789-29.916S604.3,922.334,604.3,922.334Z" transform="translate(-556.11 -922.334)" fill="#d7e5ee"/>
          <path id="Path_4535" data-name="Path 4535" d="M572.873,973.93a.523.523,0,0,1-.493-.7,97.485,97.485,0,0,1,8.719-17.128c5.575-8.891,15.265-21.56,29.773-31.416a.523.523,0,1,1,.587.864c-14.358,9.755-23.953,22.3-29.475,31.107a96.3,96.3,0,0,0-8.619,16.921A.522.522,0,0,1,572.873,973.93Z" transform="translate(-564.904 -923.973)" fill="#24598c" stroke="rgba(0,0,0,0)" stroke-width="1"/>
        </g>
        <g id="Group_4986" data-name="Group 4986" transform="translate(0 133.525)">
          <path id="Path_4536" data-name="Path 4536" d="M330.949,1134.576c.778.259,11.407,10.111,3.111,23.074s-24.629,18.407-24.629,18.407-6.482-17.629,1.556-31.629S330.949,1134.576,330.949,1134.576Z" transform="translate(-306.961 -1131.622)" fill="#92bbd1"/>
          <g id="Group_4985" data-name="Group 4985" transform="translate(1.953)">
            <path id="Path_4537" data-name="Path 4537" d="M315.063,1169.9l-1.033-.154a95.632,95.632,0,0,1,6.26-21.261,50.66,50.66,0,0,1,9.632-15.119c4.606-4.743,9.886-7.394,15.692-7.877,10.387-.865,19.072,3.881,25.118,13.729a50.649,50.649,0,0,1,6.031,15.215l-1.027.192a49.519,49.519,0,0,0-5.909-14.884c-5.909-9.607-14.028-14.052-24.126-13.21-5.545.462-10.6,3-15.022,7.557a49.6,49.6,0,0,0-9.423,14.8A94.509,94.509,0,0,0,315.063,1169.9Z" transform="translate(-314.03 -1125.387)" fill="#24598c" stroke="rgba(0,0,0,0)" stroke-width="1"/>
          </g>
        </g>
      </g>
      <g id="Group_4995" data-name="Group 4995" transform="translate(28.841 159.816)">
        <g id="Group_4988" data-name="Group 4988">
          <path id="Path_4538" data-name="Path 4538" d="M468.355,1287.766H413.468l5.86-54.947.123-1.144.3-2.84.058-.522.055-.523.57-5.337h40.96l.57,5.337.11,1.045.371,3.464.138,1.3Z" transform="translate(-412.887 -1221.93)" fill="#fff"/>
          <path id="Path_4539" data-name="Path 4539" d="M467.413,1286.92H411.364l7.077-66.359h41.9l1.239,11.612Zm-54.887-1.045h53.725l-5.851-54.889-1-9.38H419.38Z" transform="translate(-411.364 -1220.561)" fill="#24598c"/>
        </g>
        <g id="Group_4991" data-name="Group 4991" transform="translate(6.441 8.36)">
          <g id="Group_4990" data-name="Group 4990">
            <g id="Group_4989" data-name="Group 4989">
              <path id="Path_4540" data-name="Path 4540" d="M477.934,1254.132l-3.5-2.09-5.243,3.135-5.243-3.135-5.243,3.135-5.243-3.135-5.243,3.135-5.243-3.135-5.243,3.135-3.051-1.824.123-1.144,2.929,1.75,5.243-3.135,5.243,3.135,5.243-3.135,5.243,3.135,5.243-3.135,5.243,3.135,5.243-3.135,3.36,2.009Z" transform="translate(-434.681 -1250.825)" fill="#24598c" stroke="rgba(0,0,0,0)" stroke-width="1"/>
            </g>
          </g>
        </g>
        <g id="Group_4994" data-name="Group 4994" transform="translate(6.864 4.622)">
          <g id="Group_4992" data-name="Group 4992" transform="translate(0.057 0.523)">
            <path id="Path_4541" data-name="Path 4541" d="M478.629,1239.186h0Z" transform="translate(-436.421 -1239.186)" fill="#24598c" stroke="rgba(0,0,0,0)" stroke-width="1"/>
          </g>
          <g id="Group_4993" data-name="Group 4993">
            <path id="Path_4542" data-name="Path 4542" d="M478.534,1238.339H436.213l.058-.523.055-.522h42.1Z" transform="translate(-436.213 -1237.294)" fill="#24598c" stroke="rgba(0,0,0,0)" stroke-width="1"/>
          </g>
        </g>
      </g>
    </g>
    <g id="Group_5048" data-name="Group 5048" transform="translate(378.432 249.43)">
      <g id="Group_4999" data-name="Group 4999" transform="translate(16.312 209.474)">
        <path id="Path_4545" data-name="Path 4545" d="M1103.291,1102.635l4.064,17.462,20.907,89.766a4.267,4.267,0,0,0,4.274,3.3h0a4.267,4.267,0,0,0,4.041-5.223l-20.23-87.84-4.023-17.462Z" transform="translate(-1016.796 -1102.635)" fill="#92bbd1"/>
        <g id="Group_4998" data-name="Group 4998">
          <path id="Path_4546" data-name="Path 4546" d="M823.578,1102.635l-4.065,17.462-20.906,89.766a4.268,4.268,0,0,1-4.274,3.3h0a4.267,4.267,0,0,1-4.041-5.223l20.23-87.84,4.023-17.462Z" transform="translate(-790.182 -1102.635)" fill="#92bbd1"/>
        </g>
      </g>
      <g id="Group_5001" data-name="Group 5001" transform="translate(0 99.109)">
        <g id="Group_5000" data-name="Group 5000">
          <path id="Path_4547" data-name="Path 4547" d="M832.408,830.292v0h-69.96l-14.433-42.653-1.681-4.96-13.866-40.975a25.128,25.128,0,0,1,15.1-31.634q1-.372,2.045-.736a121.238,121.238,0,0,1,61.616-5.28,25.111,25.111,0,0,1,20.584,25.555l.314,53.342.033,5.161.179,30.416Z" transform="translate(-731.133 -702.221)" fill="#d7e5ee"/>
          <path id="Path_4548" data-name="Path 4548" d="M852.9,814.977v0h-62.9l-12.976-38.346-1.51-4.459-12.466-36.839a22.6,22.6,0,0,1,8.793-26,121.239,121.239,0,0,1,61.617-5.28,25.019,25.019,0,0,1,18.195,13.982,22.572,22.572,0,0,1,.708,6.426l.284,47.955.03,4.64.16,27.343Z" transform="translate(-753.369 -702.221)" fill="#b9d3e1"/>
        </g>
        <path id="Path_4549" data-name="Path 4549" d="M957.354,1112.312l-2.633,7.785H864.293l-5.908-17.462h92.026A7.33,7.33,0,0,1,957.354,1112.312Z" transform="translate(-823.232 -992.023)" fill="#92bbd1"/>
        <path id="Path_4550" data-name="Path 4550" d="M922.074,1112.312l-2.633,7.785H829.013l-5.908-17.462h92.026A7.33,7.33,0,0,1,922.074,1112.312Z" transform="translate(-797.698 -992.023)" fill="#d7e5ee"/>
      </g>
      <g id="Group_5003" data-name="Group 5003" transform="translate(15.936 88.566)">
        <path id="Path_4551" data-name="Path 4551" d="M824.748,679.534,821.265,717.6s-20.319-13.816-32.444-8.856l1.717-7.36.292-1.254,6.021-25.808a13.333,13.333,0,0,1,21.405-7.655l1.568,1.259A13.346,13.346,0,0,1,824.748,679.534Z" transform="translate(-788.821 -663.725)" fill="#84b4ce"/>
        <path id="Path_4552" data-name="Path 4552" d="M814.026,831.072a93.539,93.539,0,0,1-10.672-1.956c-5.77-1.339-9.377-2.789-11.554-4.145-4.139-2.579-3.114-4.811-1.948-5.271a16.13,16.13,0,0,1,2.811-.818c7.828-1.571,17.214,1.976,23.044,5.536,3.37,2.058,5.553,4.119,5.558,5.2C821.267,830.063,821.308,831.863,814.026,831.072Z" transform="translate(-788.821 -775.744)" fill="#84b4ce"/>
        <g id="Group_5002" data-name="Group 5002" transform="translate(1.717 35.429)">
          <path id="Path_4553" data-name="Path 4553" d="M814.759,794.7a.555.555,0,0,1-.523.375.493.493,0,0,1-.176-.03c-10.132-3.425-17.409-1.381-19.024-.832l.292-1.254c2.554-.76,9.539-2.185,19.085,1.044A.549.549,0,0,1,814.759,794.7Z" transform="translate(-795.035 -791.977)" fill="#84b4ce"/>
        </g>
      </g>
      <g id="Group_5005" data-name="Group 5005" transform="translate(86.977 269.514)">
        <path id="Path_4554" data-name="Path 4554" d="M1059.561,1341.89v40.465h-3.7a9.877,9.877,0,0,1-9.873-9.876V1341.89a6.787,6.787,0,0,1,13.573,0Z" transform="translate(-1045.987 -1330.925)" fill="#2a2a51"/>
        <path id="Path_4555" data-name="Path 4555" d="M1078.891,1355.686c-.033,3.549.08,6.236.08,6.236l-17.23.523s-.049-1.328-.165-3.747c-.036-.829-.08-1.788-.135-2.866-.193-3.982-.5-9.6-.918-16.359-.871-13.924,4-10.267,8.7-12.009s8-7.484,8-7.484c3.307,2.089,10.617,9.746,10.617,9.746a64.074,64.074,0,0,0-6.963,10.443c-1.314,2.629-1.791,8.129-1.937,12.94C1078.916,1354,1078.9,1354.865,1078.891,1355.686Z" transform="translate(-1056.433 -1319.98)" fill="#f4ad7d" stroke="rgba(0,0,0,0)" stroke-width="1"/>
        <path id="Path_4556" data-name="Path 4556" d="M1084.608,1469.616a5.74,5.74,0,0,1-2.361,2.312h-20.669a9.851,9.851,0,0,1-7.691-3.684l3.125-5.28s2.351-2.353,8.267-3.494a34.764,34.764,0,0,1,5.743-.6,22.749,22.749,0,0,1,10.777,2.1A6.3,6.3,0,0,1,1084.608,1469.616Z" transform="translate(-1051.705 -1420.499)" fill="#2a2a51"/>
        <g id="Group_5004" data-name="Group 5004" transform="translate(1.877 32.362)">
          <path id="Path_4557" data-name="Path 4557" d="M1073.416,1437.9c-.03.89-.044,1.755-.055,2.576-7.608-2.444-14.334,1.039-17.316,3.012a17.609,17.609,0,0,0-1.628,1.2l-1.637-1.863a22.14,22.14,0,0,1,3.13-2.2C1059.545,1438.463,1065.99,1435.79,1073.416,1437.9Z" transform="translate(-1052.78 -1437.13)" fill="#2a2a51"/>
        </g>
      </g>
      <g id="Group_5007" data-name="Group 5007" transform="translate(85.239 82.908)">
        <path id="Path_4559" data-name="Path 4559" d="M1270.192,847.55h0c.812-.348,1.044-4.409.116-5.453l-.014-.02a8.262,8.262,0,0,0-6.31-3.2l-47.368-4.115a12.9,12.9,0,0,0-9.358,3.446l-.124.121c-3.215,3.113-3.133,6.805-.821,10.208h0a11.11,11.11,0,0,0,9.845,4.383l47.525-2.649A9.721,9.721,0,0,0,1270.192,847.55Z" transform="translate(-1159.076 -781.846)" fill="#f4ad7d" stroke="rgba(0,0,0,0)" stroke-width="1"/>
        <g id="Group_5006" data-name="Group 5006" transform="translate(97.636 49.809)">
          <path id="Path_4560" data-name="Path 4560" d="M1397.224,837.542h0l15.22-6.834,11.567,3.26,8.253,10.461a6.052,6.052,0,0,1-6.348-.513,53.734,53.734,0,0,1-4.491-4.4l-7.506-1.864s-1.724,9.049-10.143,10.921l-6.539-1.075c-1.249.2-2.664-2.269-3.793-4.88A3.651,3.651,0,0,1,1397.224,837.542Z" transform="translate(-1393.139 -828.73)" fill="#f4ad7d" stroke="rgba(0,0,0,0)" stroke-width="1"/>
          <path id="Path_4561" data-name="Path 4561" d="M1460.616,853.869c.978-.323,7.265,1.983,7.265,1.983s2.96,3.91,5.208,3.661l3.3-.366-6.328-7.345-8.989-2.06Z" transform="translate(-1441.976 -842.505)" fill="#f4ad7d" stroke="rgba(0,0,0,0)" stroke-width="1"/>
          <path id="Path_4562" data-name="Path 4562" d="M1491.059,828.983l-9.019-5.437-11.9,2.525,2.185,4.991,8.953-2.925S1488.722,832.944,1491.059,828.983Z" transform="translate(-1448.87 -823.546)" fill="#f4ad7d" stroke="rgba(0,0,0,0)" stroke-width="1"/>
        </g>
        <path id="Path_4558" data-name="Path 4558" d="M1094.586,713.04h0a10.228,10.228,0,0,0,9.191-7.637l.009-.033a10.227,10.227,0,0,0-1.875-8.906l-38.2-48.363a13.441,13.441,0,0,0-11.056-4.846l-.222.012a13.44,13.44,0,0,0-12.226,9.769h0a13.44,13.44,0,0,0,3.545,13.269L1086.573,710A10.227,10.227,0,0,0,1094.586,713.04Z" transform="translate(-1039.698 -643.237)" fill="#f4ad7d" stroke="rgba(0,0,0,0)" stroke-width="1"/>
      </g>
      <g id="Group_5010" data-name="Group 5010" transform="translate(84.158 78.897)">
        <path id="Path_4563" data-name="Path 4563" d="M1083.243,660.388a15.736,15.736,0,0,0-5.756,1.78,24.06,24.06,0,0,0-2.764,1.675,39.92,39.92,0,0,0-6.4,5.709q-.674.728-1.309,1.469a77.366,77.366,0,0,0-8.487,12.182L1037.9,651.028a13.335,13.335,0,0,1-.981-12.568l.81-1.843a13.333,13.333,0,0,1,12.2-7.964l.234,0a13.333,13.333,0,0,1,10.088,4.888l19.314,22.548.818.953Z" transform="translate(-1035.785 -628.653)" fill="#84b4ce"/>
        <path id="Path_4564" data-name="Path 4564" d="M1133.459,756.4c-6.927,5.919-10.763,8.247-12.907,9.019a6,6,0,0,1-1.11.3c-1.246.187-1.532-.4-1.645-.615-.422-.821.234-3,1.7-5.72.309-.579.658-1.179,1.042-1.8,4.034-6.522,11.865-14.861,20.559-15.764C1143,741.621,1146.52,745.241,1133.459,756.4Z" transform="translate(-1095.05 -710.552)" fill="#84b4ce"/>
        <g id="Group_5008" data-name="Group 5008" transform="translate(24.194 27.008)">
          <path id="Path_4565" data-name="Path 4565" d="M1123.918,743.055a.545.545,0,0,1-.152-.022.551.551,0,0,1-.378-.681l4.438-15.532a.551.551,0,0,1,1.06.3l-4.438,15.533A.551.551,0,0,1,1123.918,743.055Z" transform="translate(-1123.367 -726.42)" fill="#84b4ce"/>
        </g>
      </g>
      <g id="Group_5013" data-name="Group 5013" transform="translate(30.664 76.83)">
        <path id="Path_4567" data-name="Path 4567" d="M916.983,720.075s-16.707,21.408-58.475,14.359l-16.371-99.8,20.587-10.54,5.442-2.786,24.364.35,5.371.48,2.35.209,1.094.1,6.762.6c8.851,1.265,11.7,8.991,11.981,17.927C920.626,658.064,920.648,689.1,916.983,720.075Z" transform="translate(-842.137 -621.311)" fill="#92bbd1"/>
        <g id="Group_5011" data-name="Group 5011" transform="translate(75.165 23.64)">
          <path id="Path_4568" data-name="Path 4568" d="M1118.065,740.144a6,6,0,0,1-1.11.3.546.546,0,0,1,0-.069c.1-1.976.113-4.092.061-6.266a214.881,214.881,0,0,0-2.769-26.572.551.551,0,1,1,1.086-.19,222.038,222.038,0,0,1,2.725,24.962C1118.162,735.018,1118.181,737.683,1118.065,740.144Z" transform="translate(-1114.235 -706.887)" fill="#92bbd1"/>
        </g>
        <g id="Group_5012" data-name="Group 5012" transform="translate(45.58 1.039)">
          <path id="Path_4569" data-name="Path 4569" d="M1020.764,625.171a.058.058,0,0,1,0,.022,25.738,25.738,0,0,1-2.171,7.467c-2.375,5.07-6.123,8.085-10.835,8.713a.322.322,0,0,1-.072.006.551.551,0,0,1-.074-1.1c10.5-1.405,12.042-15.064,12.055-15.2a.01.01,0,0,1,0-.008Z" transform="translate(-1007.135 -625.072)" fill="#92bbd1"/>
        </g>
      </g>
      <g id="Group_5016" data-name="Group 5016" transform="translate(135.327 185.044)">
        <g id="Group_5015" data-name="Group 5015" transform="translate(37.796 91.258)">
          <path id="Path_4570" data-name="Path 4570" d="M1379.839,1457.667H1420.3v3.7a9.876,9.876,0,0,1-9.876,9.873h-30.589a6.787,6.787,0,0,1,0-13.574Z" transform="translate(-1368.848 -1426.42)" fill="#2a2a51"/>
          <path id="Path_4571" data-name="Path 4571" d="M1410.132,1372.4v12.791H1374.6a7.978,7.978,0,0,1-7.977-7.977,27.594,27.594,0,0,0-3.5-12.767l-5.285-9.451,15.662-10.442s5.046,14.967,6.09,18.8c.49,1.794,7.211,3.888,14.224,5.613,1.223.3,2.455.59,3.665.863C1404.147,1371.339,1410.132,1372.4,1410.132,1372.4Z" transform="translate(-1357.835 -1344.554)" fill="#f4ad7d" stroke="rgba(0,0,0,0)" stroke-width="1"/>
          <path id="Path_4572" data-name="Path 4572" d="M1503.644,1456.2h-22.492c-3.382,0-6.695.714-8.662-2.558,0,0-.379-15.056,18.938-16.461,5.356-.39,14.3,2.068,16.192,8.128C1509.552,1451.493,1504.849,1455.341,1503.644,1456.2Z" transform="translate(-1440.817 -1411.565)" fill="#2a2a51"/>
          <g id="Group_5014" data-name="Group 5014" transform="translate(24.75 24.41)">
            <path id="Path_4573" data-name="Path 4573" d="M1462.322,1433.78c-8.228,2.485-11.281,11.264-12.276,15.365-.311,1.279-.422,2.1-.427,2.138l-2.188-.273c.008-.072.1-.766.339-1.865a31.9,31.9,0,0,1,2.384-6.9,20.166,20.166,0,0,1,8.5-9.328C1459.88,1433.218,1461.112,1433.507,1462.322,1433.78Z" transform="translate(-1447.431 -1432.917)" fill="#2a2a51"/>
          </g>
        </g>
        <path id="Path_4574" data-name="Path 4574" d="M1221.667,1025.051h0a14.157,14.157,0,0,1,18.052-10.178h0a14.158,14.158,0,0,1,8.962,8.508l30.838,79.785c2.83,1.077-23.628,25.952-25.1,21.208l-32-85.788A23.533,23.533,0,0,1,1221.667,1025.051Z" transform="translate(-1221.014 -1014.202)" fill="#0d2229"/>
      </g>
      <path id="Path_4575" data-name="Path 4575" d="M990.665,786.1l11.469,22.28c1.086,2.111-.013,4.984-2.469,6.6h0c-2.456,1.619-5.531,1.5-7.042-.331l-15.962-19.318a6.456,6.456,0,0,1,1.739-9.495l2.853-1.881A6.456,6.456,0,0,1,990.665,786.1Z" transform="translate(-907.831 -661.369)" fill="#fffeff"/>
      <g id="Group_5020" data-name="Group 5020" transform="translate(85.444 142.287)">
        <g id="Group_5019" data-name="Group 5019" transform="translate(18.9 10.081)">
          <g id="Group_5017" data-name="Group 5017" transform="translate(12.399 1.955)">
            <path id="Path_4576" data-name="Path 4576" d="M1153.786,920.13c-.217.635.424,1.377,1.28,1.553l3.7.762s2.338.565,2.448-.086-.656-.93-1.886-1.437-4.046-1.476-4.046-1.476-1.206-.107-1.489.66Z" transform="translate(-1153.743 -914.631)" fill="#f4ad7d"/>
            <path id="Path_4577" data-name="Path 4577" d="M1158.816,906.9c-.391.526.032,1.357.825,1.726l3.429,1.6s2.143,1.084,2.433.518-.385-1.007-1.454-1.767-3.568-2.329-3.568-2.329-1.157-.391-1.65.238Z" transform="translate(-1157.308 -905.283)" fill="#f4ad7d"/>
            <path id="Path_4578" data-name="Path 4578" d="M1163.749,902.264c-.411.408-.14,1.166.514,1.567l2.829,1.735s1.758,1.159,2.084.7-.215-.9-1.065-1.67-2.862-2.378-2.862-2.378-.973-.459-1.486.027Z" transform="translate(-1160.844 -902.026)" fill="#f4ad7d"/>
            <path id="Path_4579" data-name="Path 4579" d="M1155.655,912.747c-.343.624.244,1.5,1.159,1.816l3.96,1.383s2.488.96,2.716.3-.572-1.07-1.848-1.792-4.224-2.178-4.224-2.178-1.313-.3-1.75.447Z" transform="translate(-1155.055 -909.402)" fill="#f4ad7d"/>
          </g>
          <g id="Group_5018" data-name="Group 5018">
            <path id="Path_4580" data-name="Path 4580" d="M1113.866,902.256a6.366,6.366,0,0,0,3.9,3.075c2.35.769,6.437,2.245,6.437,2.245s.6-1.607-1.645-2.766-2.188-1.634-2.188-1.634l1.933.684c.91-1.227,2.046-5.262,3.19-6.78.145-.192-4.6-1.219-4.6-1.219a23.622,23.622,0,0,0-5.754.578c-.888.24-2.233-1.275-4.493-1.488-.917-.086-2.889,5.8-1,6.294C1112.4,901.965,1113.866,902.256,1113.866,902.256Z" transform="translate(-1108.858 -894.95)" fill="#f4ad7d"/>
          </g>
        </g>
        <path id="Path_4581" data-name="Path 4581" d="M1042.254,858.457s20.451,5.382,21.708,8.742.062,8.914-3.406,9.4-20.115-6.414-20.115-6.414Z" transform="translate(-1040.44 -858.457)" fill="#fffeff"/>
        <path id="Path_4582" data-name="Path 4582" d="M1054.109,874.521a.551.551,0,0,1-.264-.067l-4.645-2.535a.551.551,0,0,1,.528-.968l4.645,2.535a.551.551,0,0,1-.265,1.035Z" transform="translate(-1046.573 -867.451)" fill="#d7e5ee"/>
        <path id="Path_4583" data-name="Path 4583" d="M1083.871,897.9a.551.551,0,0,1-.405-.924l3.585-3.892a.551.551,0,1,1,.811.747l-3.585,3.892A.55.55,0,0,1,1083.871,897.9Z" transform="translate(-1071.474 -883.392)" fill="#d7e5ee"/>
      </g>
      <path id="Path_4584" data-name="Path 4584" d="M921.132,983.719s-10.268,29.265,10.268,31.7c16.709,1.982,73.119.969,90.789.523a14.833,14.833,0,0,0,10.72-4.984h0a14.837,14.837,0,0,0,1.457-17.755l-.346-.549a14.838,14.838,0,0,0-10.393-6.771l-57.42-7.359Z" transform="translate(-866.788 -803.143)" fill="#24598c"/>
      <path id="Path_4585" data-name="Path 4585" d="M980.581,984.882l-19.094-16.338c-2.4-2.055-6.144-1.429-8.3,1.388l-2.767,3.614c-2.344,3.061-1.794,7.338,1.165,9.06l21.861,12.723c2.515,1.464,5.876.524,7.752-2.167h0C983.1,990.428,982.835,986.811,980.581,984.882Z" transform="translate(-888.787 -795.028)" fill="#f4ad7d" stroke="rgba(0,0,0,0)" stroke-width="1"/>
      <g id="Group_5021" data-name="Group 5021" transform="translate(71.608 165.208)">
        <path id="Path_4586" data-name="Path 4586" d="M1022.814,949.776l-23.861-7.885c-3-.992-6.227,1.005-7.156,4.429l-1.192,4.393c-1.009,3.721,1.12,7.471,4.511,7.943l25.052,3.492c2.881.4,5.636-1.741,6.353-4.943h0C1027.25,953.953,1025.63,950.707,1022.814,949.776Z" transform="translate(-990.354 -941.637)" fill="#f4ad7d" stroke="rgba(0,0,0,0)" stroke-width="1"/>
        <path id="Path_4587" data-name="Path 4587" d="M1076.836,984.52l25.249,17.315c2.522,1.974,3.1,3.276,5.207.86h0c2.1-2.416,2.523-5.022.22-7.247l-20.87-22.2a6.019,6.019,0,0,0-8.722.378l-1.914,2.2A6.019,6.019,0,0,0,1076.836,984.52Z" transform="translate(-1051.274 -963.295)" fill="#f4ad7d" stroke="rgba(0,0,0,0)" stroke-width="1"/>
      </g>
      <g id="Group_5022" data-name="Group 5022" transform="translate(38.595 120.623)">
        <path id="Path_4588" data-name="Path 4588" d="M933.9,831.527A100.256,100.256,0,0,0,914.614,843.8c-8.164,6.765-26.977,10.224-30.892,7.614,0,0-1.827-19.843,1.306-28.195l-14.183-32.934a26.08,26.08,0,0,1,4.558-4.128c.331-.24.678-.485,1.042-.727.752-.507,1.579-1.014,2.477-1.5a29.512,29.512,0,0,1,12.372-3.516c3.555-.226,6.409-.328,8.7-.35,1.389-.017,2.568,0,3.574.033.411.014.791.03,1.144.05,4,.223,4.508.788,4.508.788l2.96,8.875,1.044,25.062Z" transform="translate(-870.845 -780.049)" fill="#fffeff"/>
        <path id="Path_4589" data-name="Path 4589" d="M978.14,853.169a.548.548,0,0,1-.39-.161l-3.742-3.742a.551.551,0,0,1,.779-.779l3.742,3.742a.551.551,0,0,1-.39.941Z" transform="translate(-945.394 -829.464)" fill="#d7e5ee"/>
        <path id="Path_4590" data-name="Path 4590" d="M932.38,866.808a.551.551,0,0,1-.5-.785l2.243-4.793a.551.551,0,1,1,1,.467l-2.243,4.793A.551.551,0,0,1,932.38,866.808Z" transform="translate(-914.983 -838.575)" fill="#d7e5ee"/>
        <path id="Path_4591" data-name="Path 4591" d="M970.915,901.142a.552.552,0,0,1-.5-.785l2.243-4.793a.551.551,0,1,1,1,.467l-2.243,4.793A.551.551,0,0,1,970.915,901.142Z" transform="translate(-942.873 -863.424)" fill="#d7e5ee"/>
        <path id="Path_4592" data-name="Path 4592" d="M1008.226,882.1a.551.551,0,0,1-.517-.74l1.817-4.97a.551.551,0,1,1,1.035.378l-1.817,4.97A.552.552,0,0,1,1008.226,882.1Z" transform="translate(-969.876 -849.514)" fill="#d7e5ee"/>
        <path id="Path_4593" data-name="Path 4593" d="M996.763,811.671a.544.544,0,0,1-.233-.052.551.551,0,0,1-.266-.733l2.243-4.793a.551.551,0,1,1,1,.467l-2.243,4.793A.551.551,0,0,1,996.763,811.671Z" transform="translate(-961.58 -798.669)" fill="#d7e5ee"/>
        <path id="Path_4594" data-name="Path 4594" d="M997.407,976.45a.549.549,0,0,1-.332-.112l-4.219-3.195a.551.551,0,1,1,.665-.879l4.219,3.195a.551.551,0,0,1-.333.99Z" transform="translate(-958.993 -919.086)" fill="#d7e5ee"/>
      </g>
      <g id="Group_5023" data-name="Group 5023" transform="translate(51.251 47.499)">
        <path id="Path_4595" data-name="Path 4595" d="M951.838,622.141c-.163,1.992-3.219,11.144-12.505,12.05-10.7,1.044-19.319-4.437-21.928-8.614a9.751,9.751,0,0,1-.744-1.48l5.442-2.786,24.365.35Z" transform="translate(-916.661 -591.79)" fill="#f4ad7d" stroke="rgba(0,0,0,0)" stroke-width="1"/>
        <path id="Path_4596" data-name="Path 4596" d="M943.26,517.765l-.747,25.728a18.584,18.584,0,0,0,14.233,4.972c8.631-.83,9.129-4.15,9.129-4.15l-1.12-14.1-20.25-15.769Z" transform="translate(-935.372 -514.445)" fill="#f4ad7d" stroke="rgba(0,0,0,0)" stroke-width="1"/>
      </g>
      <path id="Path_4597" data-name="Path 4597" d="M913.846,788.776c-7.671,2.191-12.808-3.643-13.764-4.836a29.514,29.514,0,0,1,12.372-3.516c3.555-.226,6.409-.328,8.7-.35h0S922.374,786.34,913.846,788.776Z" transform="translate(-853.411 -659.394)" fill="#f4ad7d"/>
      <g id="Group_5024" data-name="Group 5024" transform="translate(15.245 131.252)">
        <path id="Path_4598" data-name="Path 4598" d="M814.223,824.418l-1.681,6.654-5.6,22.155a10.212,10.212,0,0,1-5.922,6.908l-.03.014A10.227,10.227,0,0,1,786.871,849.3l3.445-24.329.862-6.09C799.007,817.311,808.392,820.857,814.223,824.418Z" transform="translate(-786.647 -818.499)" fill="#f4ad7d" stroke="rgba(0,0,0,0)" stroke-width="1"/>
        <path id="Path_4599" data-name="Path 4599" d="M855.18,918.109h0c.812-.348,1.044-4.409.116-5.453l-.014-.02a8.262,8.262,0,0,0-6.31-3.2L798.3,905.318a12.9,12.9,0,0,0-9.357,3.446l-.125.12c-3.215,3.113-3.133,6.805-.821,10.208h0a11.111,11.111,0,0,0,9.846,4.383l50.832-2.649A9.721,9.721,0,0,0,855.18,918.109Z" transform="translate(-786.321 -881.328)" fill="#f4ad7d" stroke="rgba(0,0,0,0)" stroke-width="1"/>
        <path id="Path_4600" data-name="Path 4600" d="M1000.235,915.122l.262-9.192,1.867-.357.2-.316a6.422,6.422,0,0,1,2.121-2.036l7.424-4.391,8.351,1.233c-.116,3.151-7.312,2.227-7.312,2.227l-1.235,1.457,2.813-.538,10.507,1.858s3.517.428,3.351,1.554a1.184,1.184,0,0,1-1.011,1.011c.965.121,1.916.39,1.912.983,0,.872-.7,1.223-1.88,1.518.474.091.831.272.869.606.1.841-.569,1.23-1.729,1.65.644-.047,1.227.024,1.323.412.23.928-.742,1.35-2.295,2.11-.609.3-1.53.7-2.424,1.089l-.019.113-1.425.5c-.736.309-1.263.525-1.263.525a2.524,2.524,0,0,1-.267.012l-1.371.481a10.72,10.72,0,0,1-5.87.35Z" transform="translate(-941.143 -876.639)" fill="#f4ad7d" stroke="rgba(0,0,0,0)" stroke-width="1"/>
      </g>
      <g id="Group_5025" data-name="Group 5025" transform="translate(104.22 182.988)">
        <path id="Path_4601" data-name="Path 4601" d="M1173.659,1018.927h0a14.157,14.157,0,0,0-17-11.846h0a14.158,14.158,0,0,0-9.729,7.619l-38.272,76.5c-2.92.8,21.058,28.077,22.972,23.494l40-82.363A23.533,23.533,0,0,0,1173.659,1018.927Z" transform="translate(-1108.407 -1006.759)" fill="#24598c"/>
        <path id="Path_4602" data-name="Path 4602" d="M1175.894,1272.154a.521.521,0,0,1-.075-.005.551.551,0,0,1-.472-.62c.032-.231,3.229-23.233,10.492-38.279a.551.551,0,0,1,.993.479c-7.187,14.887-10.361,37.719-10.392,37.948A.551.551,0,0,1,1175.894,1272.154Z" transform="translate(-1156.851 -1170.458)" fill="#3a4521"/>
        <path id="Path_4603" data-name="Path 4603" d="M1223.143,1230.175a.552.552,0,0,1-.508-.764c.187-.445,4.631-10.956,9.878-15.853a.551.551,0,1,1,.752.806c-5.076,4.737-9.569,15.366-9.614,15.473A.551.551,0,0,1,1223.143,1230.175Z" transform="translate(-1191.049 -1156.324)" fill="#3a4521"/>
      </g>
      <g id="Group_5026" data-name="Group 5026" transform="translate(32.134 128.543)">
        <path id="Path_4604" data-name="Path 4604" d="M868.655,818.768,858.37,841.619c-.974,2.165-3.908,3.094-6.7,2.182h0c-2.8-.912-4.617-3.393-4.128-5.716l5.17-24.52a6.456,6.456,0,0,1,8.511-4.554l3.249,1.06A6.456,6.456,0,0,1,868.655,818.768Z" transform="translate(-847.458 -808.653)" fill="#fffeff"/>
        <path id="Path_4605" data-name="Path 4605" d="M895.3,839.834a.549.549,0,0,1-.39-.161l-3.742-3.742a.551.551,0,0,1,.779-.779l3.742,3.742a.551.551,0,0,1-.39.941Z" transform="translate(-878.974 -827.714)" fill="#d7e5ee"/>
        <path id="Path_4606" data-name="Path 4606" d="M869.578,879.643a.551.551,0,0,1-.549-.514l-.361-5.279a.551.551,0,1,1,1.1-.075l.362,5.279a.551.551,0,0,1-.512.587Z" transform="translate(-862.807 -855.414)" fill="#d7e5ee"/>
      </g>
      <path id="Path_4607" data-name="Path 4607" d="M1033.527,829.87a.548.548,0,0,1-.332-.112l-4.219-3.195a.551.551,0,1,1,.666-.878l4.219,3.195a.551.551,0,0,1-.333.99Z" transform="translate(-946.541 -692.341)" fill="#d7e5ee"/>
      <g id="Group_5027" data-name="Group 5027" transform="translate(43.152 120.709)">
        <path id="Path_4608" data-name="Path 4608" d="M915.362,789.027c-2.767,2.3-7.721.568-9.17-.017-3.687,4.613-7,5.938-9.592,5.938a7.614,7.614,0,0,1-2.477-.416c-3.8-1.3-6.349-5.47-6.779-8.275.331-.24.678-.485,1.042-.727a10.048,10.048,0,0,0,6.1,7.961c3.533,1.21,7.374-.686,11.1-5.489l.267-.344.4.179c.058.028,5.748,2.56,8.412.342,1.54-1.282,1.827-3.968.849-7.986.411.014.791.03,1.144.05C917.644,784.539,917.211,787.492,915.362,789.027Z" transform="translate(-887.344 -780.193)" fill="#d7e5ee"/>
      </g>
      <path id="Path_4609" data-name="Path 4609" d="M959.5,1024.756l-22.967,18.475c-2.617,1.846-4.032,2.028-2.325,4.738h0c1.707,2.71,4.08,3.865,6.875,2.3l27.273-13.582a6.8,6.8,0,0,0,2.412-9.061h0C968.928,1024.711,962.314,1022.77,959.5,1024.756Z" transform="translate(-877.568 -836.026)" fill="#f4ad7d" stroke="rgba(0,0,0,0)" stroke-width="1"/>
      <g id="Group_5028" data-name="Group 5028" transform="translate(50.558 205.61)">
        <path id="Path_4610" data-name="Path 4610" d="M928.028,1109.337c-.928,4.018-3.532,4.983-5.124,5.188a5.307,5.307,0,0,1-1.289.021c-9.009-8.755-7.339-23.24-7.339-23.24l1.5-.565,8.657-2.649c.066,1.948,3.3,8.85,3.3,8.85C927.37,1102.723,929.18,1104.349,928.028,1109.337Z" transform="translate(-914.154 -1088.092)" fill="#0d2229"/>
        <path id="Path_4611" data-name="Path 4611" d="M922.9,1121.464a5.311,5.311,0,0,1-1.289.021c-9.009-8.755-7.339-23.24-7.339-23.24l1.5-.565.17.109A32.418,32.418,0,0,0,922.9,1121.464Z" transform="translate(-914.154 -1095.031)" fill="#92bbd1"/>
        <path id="Path_4612" data-name="Path 4612" d="M932.519,1123.777a2.341,2.341,0,0,1-.448-.041,2.367,2.367,0,0,1-1.394-3.518c1.6-2.232,8.036-1.97,8.765-1.933a.49.49,0,0,1,.33.828C939.294,1119.612,935.236,1123.777,932.519,1123.777Zm5.733-4.539c-2.241,0-5.866.278-6.778,1.551a1.4,1.4,0,0,0,.785,1.985C933.794,1123.073,936.62,1120.778,938.252,1119.238Z" transform="translate(-925.841 -1109.924)" fill="#fff"/>
        <path id="Path_4613" data-name="Path 4613" d="M966.553,1125.843a1.237,1.237,0,0,1-.176-.013c-1.906-.274-3.631-5.57-3.957-6.629a.49.49,0,0,1,.577-.622c.176.04,4.314,1.011,5.274,3.412a3.209,3.209,0,0,1-.49,3.068h0A1.47,1.47,0,0,1,966.553,1125.843Zm-2.913-6.062c.864,2.5,2.109,4.969,2.876,5.079.133.019.284-.1.447-.342h0a2.264,2.264,0,0,0,.4-2.162C966.856,1121.091,964.941,1120.213,963.64,1119.781Zm3.732,5.008h0Z" transform="translate(-949.071 -1110.149)" fill="#fff"/>
        <path id="Path_4614" data-name="Path 4614" d="M950.267,1135.184a.49.49,0,0,1-.1-.97l3.348-.7a.49.49,0,1,1,.2.959l-3.348.7A.489.489,0,0,1,950.267,1135.184Z" transform="translate(-939.936 -1120.959)" fill="#fff"/>
        <path id="Path_4615" data-name="Path 4615" d="M951.443,1143.528a.49.49,0,0,1-.051-.977l3.439-.367a.49.49,0,1,1,.1.974l-3.439.367A.477.477,0,0,1,951.443,1143.528Z" transform="translate(-940.788 -1127.24)" fill="#fff"/>
        <path id="Path_4616" data-name="Path 4616" d="M952.767,1150.4a.49.49,0,0,1-.044-.978l3.428-.316a.49.49,0,0,1,.09.976l-3.428.316Z" transform="translate(-941.746 -1132.249)" fill="#fff"/>
        <path id="Path_4617" data-name="Path 4617" d="M931.014,1126.521a.49.49,0,0,1-.473-.62c1.6-5.812,8.876-7.267,9.185-7.327a.49.49,0,0,1,.185.962c-.07.014-6.991,1.4-8.425,6.623A.49.49,0,0,1,931.014,1126.521Z" transform="translate(-926.001 -1110.148)" fill="#fff"/>
      </g>
      <g id="Group_5029" data-name="Group 5029" transform="translate(15.2 179.498)">
        <path id="Path_4618" data-name="Path 4618" d="M881.585,1008.559l-6.829,32.542-5.1.014,2.505-11.777,4.566-21.8a7.538,7.538,0,0,0-7.385-9.093H787.839l-1.681-4.96h83.187a12.626,12.626,0,0,1,2.607.273,12.508,12.508,0,0,1,9.633,14.8Z" transform="translate(-786.158 -993.489)" fill="#92bbd1"/>
      </g>
      <g id="Group_5033" data-name="Group 5033" transform="translate(33.446 155.654)">
        <g id="Group_5032" data-name="Group 5032" transform="translate(16.228 16.216)">
          <g id="Group_5030" data-name="Group 5030" transform="translate(7.566 9.993)">
            <path id="Path_4619" data-name="Path 4619" d="M950.5,1002.075c.477-.458,1.4-.195,1.918.5l2.22,2.985s1.477,1.85.942,2.219-1.1-.2-2.067-1.085-3-2.995-3-2.995-.6-1.031-.031-1.6Z" transform="translate(-946.95 -1001.846)" fill="#f4ad7d"/>
            <path id="Path_4620" data-name="Path 4620" d="M940.6,1012.17c.306-.568,1.224-.536,1.882.018l2.85,2.395s1.858,1.46,1.475,1.955-1.058.075-2.182-.562-3.562-2.214-3.562-2.214-.83-.869-.474-1.571Z" transform="translate(-939.906 -1009.02)" fill="#f4ad7d"/>
            <path id="Path_4621" data-name="Path 4621" d="M938.387,1018.632c.193-.536.982-.61,1.611-.193l2.725,1.8s1.765,1.086,1.5,1.565-.9.184-1.933-.255-3.312-1.563-3.312-1.563-.814-.677-.594-1.337Z" transform="translate(-938.343 -1013.662)" fill="#f4ad7d"/>
            <path id="Path_4622" data-name="Path 4622" d="M944.62,1006.816c.414-.566,1.436-.406,2.1.278l2.881,2.957s1.891,1.82,1.4,2.3-1.193-.065-2.367-.9-3.7-2.861-3.7-2.861-.817-1.045-.33-1.747Z" transform="translate(-942.763 -1005.195)" fill="#f4ad7d"/>
          </g>
          <g id="Group_5031" data-name="Group 5031">
            <path id="Path_4623" data-name="Path 4623" d="M918.841,969.323a6.265,6.265,0,0,1,4.366,2.2c1.664,1.776,4.681,4.807,4.681,4.807s-1.182,1.208-3.152-.316-2.367-1.272-2.367-1.272l1.414,1.439c-.716,1.322-3.843,4.015-4.72,5.666-.111.209-3-3.6-3-3.6a23.242,23.242,0,0,1-1.878-5.372c-.156-.892-2.067-1.461-3.2-3.388-.458-.782,3.971-4.99,5.2-3.507C917.973,968.14,918.841,969.323,918.841,969.323Z" transform="translate(-910.953 -965.67)" fill="#f4ad7d"/>
          </g>
        </g>
        <path id="Path_4624" data-name="Path 4624" d="M852.208,913.091s12.729,16.887,16.315,16.777,8.273-3.32,7.409-6.714-13.557-16.185-13.557-16.185Z" transform="translate(-852.208 -906.969)" fill="#fffeff"/>
        <path id="Path_4625" data-name="Path 4625" d="M869.7,929.726a.548.548,0,0,1-.347-.123l-4.106-3.338a.551.551,0,0,1,.7-.855l4.106,3.338a.551.551,0,0,1-.348.979Z" transform="translate(-861.495 -920.226)" fill="#d7e5ee"/>
        <path id="Path_4626" data-name="Path 4626" d="M903.925,949.338a.552.552,0,0,1-.5-.785l2.243-4.792a.551.551,0,0,1,1,.467l-2.243,4.793A.552.552,0,0,1,903.925,949.338Z" transform="translate(-889.24 -933.367)" fill="#d7e5ee"/>
      </g>
      <g id="Group_5043" data-name="Group 5043" transform="translate(44.975 0)">
        <path id="Path_4627" data-name="Path 4627" d="M971.573,434.814l-2.833,12.731a7.307,7.307,0,0,1-6.5,5.7l-5.569.484a7.29,7.29,0,0,1-4.81-1.283c-3.616-2.536-10.4-8.284-13.083-17.219a96.089,96.089,0,0,1-2.9-15.774c-.313-3.937-.586-7.962.909-10.286,8.381-13.029,32.615-1.99,32.615-1.99l2.407,23.606A12.706,12.706,0,0,1,971.573,434.814Z" transform="translate(-924.115 -386.147)" fill="#f4ad7d" stroke="rgba(0,0,0,0)" stroke-width="1"/>
        <ellipse id="Ellipse_103" data-name="Ellipse 103" cx="1.793" cy="2.801" rx="1.793" ry="2.801" transform="translate(24.882 35.036)" fill="#2a2a51"/>
        <ellipse id="Ellipse_104" data-name="Ellipse 104" cx="1.793" cy="2.801" rx="1.793" ry="2.801" transform="translate(39.677 33.908)" fill="#2a2a51"/>
        <path id="Path_4628" data-name="Path 4628" d="M958.85,444.825c1.153,1.922,10.512-1.881,9.406-4.869S957.19,442.059,958.85,444.825Z" transform="translate(-940.785 -412.376)" fill="#2a2a51"/>
        <path id="Path_4629" data-name="Path 4629" d="M1041.208,443.021c-.685,1.565-8.742-1.107-7.635-4.094S1042.37,440.365,1041.208,443.021Z" transform="translate(-994.925 -411.568)" fill="#2a2a51"/>
        <g id="Group_5039" data-name="Group 5039">
          <path id="Path_4630" data-name="Path 4630" d="M909.683,396.551l-2.711,15.935-4.592-1.328s-10.789-17.1-7.967-22.74,12.615-.664,12.615-.664Z" transform="translate(-893.941 -373.785)" fill="#2a2a51"/>
          <path id="Path_4631" data-name="Path 4631" d="M936.185,357.964s1.328-4.482,8.465-9.461,11.121-2.822,8.8,2.988c0,0,9.627-12.283,15.6-8.133s-1.494,8.8-1.494,8.8,11.951,2.988,5.312,10.789-19.421,1.328-20.25-2.822c0,0,.5,5.312-3.818,6.308s-12.283-2.656-12.781-3.652S936.185,357.964,936.185,357.964Z" transform="translate(-924.261 -342.501)" fill="#2a2a51"/>
          <g id="Group_5034" data-name="Group 5034" transform="translate(0.111 9.953)">
            <path id="Path_4632" data-name="Path 4632" d="M907.318,383.072a.525.525,0,0,1-.428-.22c-3.862-5.406-11.756-2.5-11.835-2.47a.526.526,0,0,1-.373-.983c.087-.033,8.728-3.227,13.064,2.842a.525.525,0,0,1-.427.831Z" transform="translate(-894.343 -378.53)" fill="#2a2a51"/>
          </g>
          <g id="Group_5035" data-name="Group 5035" transform="translate(27.831 16.802)">
            <path id="Path_4633" data-name="Path 4633" d="M1008.448,412.391c-.187,0-.375,0-.567-.011a15.274,15.274,0,0,1-10.478-4.151,11.421,11.421,0,0,1-2.684-3.911.526.526,0,0,1,.991-.351c.1.292,2.621,7,12.211,7.362,8.636.332,11.288-7.562,11.314-7.642a.526.526,0,1,1,1,.323C1020.208,404.1,1017.423,412.391,1008.448,412.391Z" transform="translate(-994.689 -403.323)" fill="#2a2a51"/>
          </g>
          <g id="Group_5036" data-name="Group 5036" transform="translate(31.007 2.636)">
            <path id="Path_4634" data-name="Path 4634" d="M1006.738,362.718a.551.551,0,0,1-.483-.815c.22-.4,5.445-9.859,11.274-9.859a.551.551,0,1,1,0,1.1c-5.177,0-10.256,9.192-10.306,9.285A.551.551,0,0,1,1006.738,362.718Z" transform="translate(-1006.187 -352.044)" fill="#3d3d66"/>
          </g>
          <g id="Group_5037" data-name="Group 5037" transform="translate(7.252 17.777)">
            <path id="Path_4635" data-name="Path 4635" d="M933.183,411.091a25.6,25.6,0,0,1-6.68-1.045,42.833,42.833,0,0,1-5.991-2.141.551.551,0,0,1,.462-1c.1.047,10.211,4.662,15.755,2.51a.551.551,0,1,1,.4,1.028A10.9,10.9,0,0,1,933.183,411.091Z" transform="translate(-920.192 -406.854)" fill="#3d3d66"/>
          </g>
          <g id="Group_5038" data-name="Group 5038" transform="translate(2.721 14.517)">
            <path id="Path_4636" data-name="Path 4636" d="M909.25,413.048a.551.551,0,0,1-.491-.3c-.693-1.361-6.7-13.387-4.475-16.36,2.39-3.187,7.18.318,7.383.469a.551.551,0,0,1-.657.885c-.041-.03-4.11-3-5.844-.692-1.371,1.828,2.079,10.292,4.575,15.2a.551.551,0,0,1-.491.8Z" transform="translate(-903.79 -395.053)" fill="#3d3d66"/>
          </g>
        </g>
        <g id="Group_5041" data-name="Group 5041" transform="translate(3.35 36.915)">
          <path id="Path_4637" data-name="Path 4637" d="M916.966,479.745s-3.983-6.723-9.378-1.826,4.979,14.939,9.3,12.117S916.966,479.745,916.966,479.745Z" transform="translate(-906.069 -476.132)" fill="#f4ad7d" stroke="rgba(0,0,0,0)" stroke-width="1"/>
          <g id="Group_5040" data-name="Group 5040" transform="translate(2.792 5.031)">
            <path id="Path_4638" data-name="Path 4638" d="M922.177,498.986a.526.526,0,0,1-.5-.362c-1.323-4.044-4.7-3.18-4.841-3.142a.526.526,0,1,1-.275-1.015c.044-.012,4.484-1.152,6.114,3.83a.526.526,0,0,1-.5.689Z" transform="translate(-916.174 -494.346)" fill="#e08d5f"/>
          </g>
        </g>
        <path id="Path_4639" data-name="Path 4639" d="M972.217,478.417l-2.833,12.731a7.307,7.307,0,0,1-6.5,5.7l-5.569.484a7.289,7.289,0,0,1-4.81-1.283c-3.616-2.536-10.4-8.284-13.083-17.219a96.077,96.077,0,0,1-2.9-15.774l1.987,1.03,4.716,9.761a4.4,4.4,0,0,0,5.039,2.356c5.649-1.42,16.973-3.755,24.191-1.818A12.7,12.7,0,0,1,972.217,478.417Z" transform="translate(-924.759 -429.749)" fill="#2a2a51"/>
        <path id="Path_4640" data-name="Path 4640" d="M986.377,524.36a24.817,24.817,0,0,0,12.034,4.233s-2.9,2.988-6.556,1.992S986.377,524.36,986.377,524.36Z" transform="translate(-960.842 -474.123)" fill="#fff"/>
        <g id="Group_5042" data-name="Group 5042" transform="translate(32.627 36.4)">
          <path id="Path_4641" data-name="Path 4641" d="M1017.065,476.174l3.2,7.69s-3.264,2.069-6.306.49Z" transform="translate(-1013.429 -475.648)" fill="#f4ad7d"/>
          <path id="Path_4642" data-name="Path 4642" d="M1015.083,484.1a5.894,5.894,0,0,1-2.747-.657.526.526,0,1,1,.484-.933,6.147,6.147,0,0,0,5.4-.259L1015.2,475a.526.526,0,0,1,.971-.4l3.366,8.1-.374.237A8.364,8.364,0,0,1,1015.083,484.1Z" transform="translate(-1012.052 -474.27)" fill="#e08d5f"/>
        </g>
      </g>
      <g id="Group_5044" data-name="Group 5044" transform="translate(120.378 189.806)">
        <path id="Path_4643" data-name="Path 4643" d="M1186.206,1041.585c4.115-.27,5.79,1.945,6.445,3.41a5.308,5.308,0,0,1,.392,1.228c-5.785,11.151-20.136,13.73-20.136,13.73l-.974-1.276-5.033-7.525c1.846-.625,7.524-5.707,7.524-5.707C1180.062,1044.122,1181.1,1041.921,1186.206,1041.585Z" transform="translate(-1166.9 -1038.579)" fill="#0d2229"/>
        <path id="Path_4644" data-name="Path 4644" d="M1205.836,1053.989a5.313,5.313,0,0,1,.392,1.228c-5.785,11.151-20.136,13.73-20.136,13.73l-.974-1.276.055-.194A32.418,32.418,0,0,0,1205.836,1053.989Z" transform="translate(-1180.086 -1047.573)" fill="#92bbd1"/>
        <path id="Path_4645" data-name="Path 4645" d="M1197.4,1062.4a2.008,2.008,0,0,1-.648-.109c-2.6-.889-4.2-7.127-4.379-7.835a.49.49,0,0,1,.7-.554c.652.331,6.373,3.309,6.648,6.039a2.1,2.1,0,0,1-.9,1.915A2.266,2.266,0,0,1,1197.4,1062.4Zm-3.77-7.079c.649,2.145,1.958,5.536,3.44,6.043a1.4,1.4,0,0,0,1.674-1.325C1198.591,1058.479,1195.578,1056.434,1193.633,1055.316Z" transform="translate(-1185.329 -1047.468)" fill="#fff"/>
        <path id="Path_4646" data-name="Path 4646" d="M1192.759,1037.871a.489.489,0,0,1-.489-.457c-.012-.18-.276-4.422,1.746-6.034a3.209,3.209,0,0,1,3.079-.415,1.409,1.409,0,0,1,1.143,1.122c.287,1.9-4.286,5.083-5.206,5.7A.488.488,0,0,1,1192.759,1037.871Zm3.076-6.129a1.871,1.871,0,0,0-1.208.4c-1.068.851-1.356,2.937-1.393,4.306,2.146-1.549,4.15-3.453,4.035-4.22-.02-.133-.174-.244-.457-.33A3.407,3.407,0,0,0,1195.835,1031.742Z" transform="translate(-1185.249 -1030.763)" fill="#fff"/>
        <path id="Path_4647" data-name="Path 4647" d="M1208.887,1053.1a.49.49,0,0,1-.431-.256l-1.636-3a.49.49,0,0,1,.861-.469l1.636,3a.491.491,0,0,1-.43.725Z" transform="translate(-1195.75 -1044.049)" fill="#fff"/>
        <path id="Path_4648" data-name="Path 4648" d="M1216.467,1049.342a.49.49,0,0,1-.452-.3l-1.343-3.187a.49.49,0,0,1,.9-.38l1.343,3.187a.49.49,0,0,1-.451.68Z" transform="translate(-1201.448 -1041.194)" fill="#fff"/>
        <path id="Path_4649" data-name="Path 4649" d="M1222.67,1046.119a.489.489,0,0,1-.454-.306l-1.291-3.192a.49.49,0,0,1,.908-.367l1.291,3.192a.49.49,0,0,1-.271.638A.482.482,0,0,1,1222.67,1046.119Z" transform="translate(-1205.974 -1038.858)" fill="#fff"/>
        <path id="Path_4650" data-name="Path 4650" d="M1201.831,1060.35c-5.9,0-9.319-6.409-9.463-6.685a.49.49,0,0,1,.868-.454c.033.063,3.364,6.286,8.772,6.156a.49.49,0,0,1,.024.98Z" transform="translate(-1185.292 -1046.82)" fill="#fff"/>
      </g>
      <g id="Group_5047" data-name="Group 5047" transform="translate(28.661 74.225)">
        <path id="Path_4651" data-name="Path 4651" d="M854.849,664.587s-1.942-27.429,2.858-34.335c5.883-8.466,20.34-11.445,27.064-4.39,6.168,6.472,12.776,29.225,12.776,29.225S880.568,673.914,854.849,664.587Z" transform="translate(-849.053 -619.094)" fill="#3d3d66"/>
        <path id="Path_4652" data-name="Path 4652" d="M927.594,756.536s-.149,2.067-5.309,3.179a11.1,11.1,0,0,1-8.993-2.225l.594-9.056.3-4.616,11.636,1.115.962,6.3Z" transform="translate(-891.633 -707.322)" fill="#f4ad7d"/>
        <g id="Group_5045" data-name="Group 5045" transform="translate(22.253 36.496)">
          <path id="Path_4653" data-name="Path 4653" d="M928.342,751.238a1.007,1.007,0,0,1-.126.035l-3.627.843a3.173,3.173,0,0,1-1.631-.048,2.225,2.225,0,0,1-.337-.116c-1.633-.695-4.707-1.578-7.178-3.519l.3-4.616,11.636,1.115Z" transform="translate(-915.442 -743.818)" fill="#e08d5f"/>
        </g>
        <path id="Path_4654" data-name="Path 4654" d="M848.237,627.4s-4.707.336-5.883-1.345,6.22-11.6,9.582-11.263,3.362,6.892,3.362,6.892Z" transform="translate(-840.2 -613.934)" fill="#3d3d66"/>
        <path id="Path_4655" data-name="Path 4655" d="M880.212,706.891s-2.557-4.315-6.019-1.172,3.2,9.588,5.966,7.777S880.212,706.891,880.212,706.891Z" transform="translate(-862.629 -678.918)" fill="#f4ad7d"/>
        <g id="Group_5046" data-name="Group 5046" transform="translate(14.366 9.226)">
          <path id="Path_4656" data-name="Path 4656" d="M913.291,665.138c.414,3.511-3.193,9.838-3.193,9.838a3.382,3.382,0,0,1-2.449,2.253l-3.835.893a3.366,3.366,0,0,1-1.726-.052,2.355,2.355,0,0,1-.356-.123c-2.677-1.136-9.01-2.759-10.971-8.264-.825-2.315-2.652-8.276-3.6-11.869a8.287,8.287,0,0,1,4.9-9.79c.44-.178.874-.348,1.292-.5,5.779-2.143,14.023-4.018,16.34-.3C911.352,649.879,912.709,660.163,913.291,665.138Z" transform="translate(-886.891 -645.103)" fill="#f4ad7d"/>
        </g>
        <path id="Path_4657" data-name="Path 4657" d="M913.931,698.935c.194,1.239-.291,2.344-1.084,2.468s-1.593-.779-1.787-2.018.291-2.344,1.084-2.468S913.737,697.7,913.931,698.935Z" transform="translate(-889.987 -673.369)" fill="#2a2a51"/>
        <path id="Path_4658" data-name="Path 4658" d="M961.5,688.131c.194,1.239-.291,2.344-1.084,2.468s-1.593-.779-1.787-2.018.291-2.344,1.084-2.468S961.308,686.892,961.5,688.131Z" transform="translate(-924.416 -665.55)" fill="#2a2a51"/>
        <path id="Path_4659" data-name="Path 4659" d="M925.27,731.822a20.45,20.45,0,0,0,10.495.592s-1.614,3.03-4.733,3.079S925.27,731.822,925.27,731.822Z" transform="translate(-900.302 -698.64)" fill="#fff"/>
        <path id="Path_4660" data-name="Path 4660" d="M884.031,722.743a.533.533,0,0,1-.506-.367,2.393,2.393,0,0,0-2.9-1.9.532.532,0,0,1-.275-1.028,3.458,3.458,0,0,1,4.187,2.6.533.533,0,0,1-.506.7Z" transform="translate(-867.508 -689.608)" fill="#e08d5f"/>
        <path id="Path_4661" data-name="Path 4661" d="M875.337,633.106s-4.306-15.921,9.982-20.46c10.19-3.237,16.468,3.991,19.662,12.4Z" transform="translate(-863.722 -611.815)" fill="#3d3d66"/>
        <path id="Path_4662" data-name="Path 4662" d="M866.429,671.871a.526.526,0,0,1-.522-.472c-1.563-15.367,3.1-25.7,3.149-25.8a.526.526,0,0,1,.955.44c-.046.1-4.59,10.188-3.058,25.252a.526.526,0,0,1-.47.576Z" transform="translate(-857.106 -636.016)" fill="#2a2a51"/>
        <path id="Path_4663" data-name="Path 4663" d="M932.2,627.776a.526.526,0,0,1-.483-.317c-3.286-7.572-9.888-7.578-9.953-7.573a.535.535,0,0,1-.533-.519.526.526,0,0,1,.519-.533c.075,0,7.37,0,10.931,8.206a.526.526,0,0,1-.482.735Z" transform="translate(-897.378 -616.865)" fill="#2a2a51"/>
        <path id="Path_4664" data-name="Path 4664" d="M937.911,645.17a.526.526,0,0,1-.512-.411c-.985-4.377-2.938-6.078-2.958-6.094a.526.526,0,0,1,.675-.806c.091.076,2.238,1.909,3.309,6.67a.526.526,0,0,1-.4.628A.519.519,0,0,1,937.911,645.17Z" transform="translate(-906.805 -630.546)" fill="#2a2a51"/>
        <path id="Path_4665" data-name="Path 4665" d="M895.654,638.094a.526.526,0,0,1-.5-.372c-1.787-5.837,1.53-11.659,1.672-11.9a.526.526,0,0,1,.909.527c-.032.056-3.227,5.677-1.577,11.069a.526.526,0,0,1-.5.68Z" transform="translate(-878.123 -621.729)" fill="#2a2a51"/>
        <path id="Path_4666" data-name="Path 4666" d="M932.746,624.8a.551.551,0,0,1-.514-.352c-2.574-6.638-6.765-10.481-12.457-11.422a17.177,17.177,0,0,0-7.812.562.551.551,0,1,1-.376-1.036,18.047,18.047,0,0,1,8.368-.614c4.2.695,9.911,3.359,13.3,12.111a.551.551,0,0,1-.315.713A.543.543,0,0,1,932.746,624.8Z" transform="translate(-890.137 -611.704)" fill="#3d3d66"/>
        <path id="Path_4667" data-name="Path 4667" d="M900.614,687.513S906.3,686,905.6,685.077,900.266,686.237,900.614,687.513Z" transform="translate(-882.444 -664.641)" fill="#3d3d66"/>
        <path id="Path_4668" data-name="Path 4668" d="M959.016,674.653s-5.872.341-5.5-.758S958.948,673.332,959.016,674.653Z" transform="translate(-920.733 -656.287)" fill="#3d3d66"/>
        <path id="Path_4669" data-name="Path 4669" d="M944.653,706.656q-.131,0-.266-.008a.532.532,0,1,1,.062-1.063,3.121,3.121,0,0,0,2.285-.781l-2.5-3.235a.532.532,0,1,1,.842-.652l3.033,3.918-.243.325A4.155,4.155,0,0,1,944.653,706.656Z" transform="translate(-913.775 -676.123)" fill="#e08d5f"/>
        <path id="Path_4670" data-name="Path 4670" d="M842.847,628.548c-.693,0-6.795-.077-7.769-2.74-1.247-3.41,3.871-9.1,7.8-11.366,2.225-1.282,3.928-1.414,4.8-.373a.551.551,0,0,1-.847.706c-.464-.558-1.767-.319-3.4.622-4,2.305-8.249,7.491-7.32,10.032.537,1.467,4.415,2.016,6.734,2.017a.551.551,0,0,1,0,1.1Z" transform="translate(-834.887 -612.913)" fill="#3d3d66"/>
      </g>
    </g>
    <g id="Group_5061" data-name="Group 5061" transform="translate(527.285 295.495)">
      <g id="Group_5053" data-name="Group 5053" transform="translate(48.081)">
        <g id="Group_5049" data-name="Group 5049" transform="translate(56.795 8.161)">
          <path id="Path_4671" data-name="Path 4671" d="M1676.091,571.874l-20.6-25.842a16.533,16.533,0,0,1,20.6,25.842Z" transform="translate(-1654.035 -542.165)" fill="#0d2229"/>
          <path id="Path_4672" data-name="Path 4672" d="M1670.52,597.341a7.085,7.085,0,1,1-8.834-11.08c.059-.047.118-.093.178-.137l8.83,11.075C1670.637,597.247,1670.579,597.294,1670.52,597.341Z" transform="translate(-1656.589 -573.56)" fill="#24598c"/>
          <path id="Path_4673" data-name="Path 4673" d="M1727.219,553.5l-8.137-10.206,5.946-2.649,6.1,7.648Z" transform="translate(-1700.062 -540.643)" fill="#0d2229"/>
          <path id="Path_4674" data-name="Path 4674" d="M1668.734,573.968l-17.582-21.82a4.177,4.177,0,0,1,.631-5.873h0l22.824,28.324h0A4.177,4.177,0,0,1,1668.734,573.968Z" transform="translate(-1650.227 -544.719)" fill="#0d2229"/>
        </g>
        <g id="Group_5051" data-name="Group 5051" transform="translate(83.832)">
          <g id="Group_5050" data-name="Group 5050" transform="translate(0 1.637)">
            <path id="Path_4675" data-name="Path 4675" d="M1781.511,625.106l-1.722-.869L1807,570.3l-43.583-50.733-14.259,9.285-1.052-1.616,15.674-10.206,45.522,52.99Z" transform="translate(-1748.101 -517.025)" fill="#24598c"/>
          </g>
          <circle id="Ellipse_105" data-name="Ellipse 105" cx="3.273" cy="3.273" r="3.273" transform="translate(12.141)" fill="#24598c"/>
          <circle id="Ellipse_106" data-name="Ellipse 106" cx="3.273" cy="3.273" r="3.273" transform="translate(55.14 57.365) rotate(-76.717)" fill="#24598c"/>
        </g>
        <g id="Group_5052" data-name="Group 5052" transform="translate(0 22.194)">
          <path id="Path_4676" data-name="Path 4676" d="M1454.038,616.214a.551.551,0,0,1-.247-1.044l47.337-23.669a.551.551,0,1,1,.493.986l-47.337,23.668A.546.546,0,0,1,1454.038,616.214Z" transform="translate(-1451.039 -591.443)" fill="#fff"/>
          <path id="Path_4677" data-name="Path 4677" d="M1445.181,658.507a.551.551,0,0,1-.3-1.011l52.046-34.461a.551.551,0,0,1,.609.919l-52.047,34.462A.549.549,0,0,1,1445.181,658.507Z" transform="translate(-1444.629 -614.241)" fill="#fff"/>
          <path id="Path_4678" data-name="Path 4678" d="M1605.237,686.176a.551.551,0,0,1-.453-.865l21.232-30.63a.551.551,0,0,1,.906.628l-21.232,30.63A.55.55,0,0,1,1605.237,686.176Z" transform="translate(-1560.471 -637.04)" fill="#fff"/>
          <path id="Path_4679" data-name="Path 4679" d="M1570.588,668.629a.551.551,0,0,1-.38-.951l21.058-20.014a.551.551,0,0,1,.759.8l-21.058,20.014A.551.551,0,0,1,1570.588,668.629Z" transform="translate(-1535.393 -632.024)" fill="#fff"/>
        </g>
        <rect id="Rectangle_696" data-name="Rectangle 696" width="34.459" height="5.759" transform="translate(99.326 108.006)" fill="#0d2229"/>
      </g>
      <g id="Group_5055" data-name="Group 5055" transform="translate(0 113.811)">
        <rect id="Rectangle_697" data-name="Rectangle 697" width="187.782" height="5.649" fill="#24598c"/>
        <path id="Path_4680" data-name="Path 4680" d="M1754.181,956.066l36.275,149.99h7.111L1767.01,954.37Z" transform="translate(-1620.589 -945.73)" fill="#24598c"/>
        <path id="Path_4681" data-name="Path 4681" d="M1348.85,956.066l-36.305,149.99h-7.08l30.557-151.686Z" transform="translate(-1295.827 -945.73)" fill="#24598c"/>
        <path id="Path_4682" data-name="Path 4682" d="M1478.361,948.589H1333.545a5.649,5.649,0,0,1-5.649-5.649H1484.01A5.649,5.649,0,0,1,1478.361,948.589Z" transform="translate(-1312.062 -937.458)" fill="#24598c"/>
        <path id="Path_4683" data-name="Path 4683" d="M1478.361,948.589H1333.545a5.649,5.649,0,0,1-5.649-5.649H1484.01A5.649,5.649,0,0,1,1478.361,948.589Z" transform="translate(-1312.062 -937.458)" fill="#0d2229" opacity="0.5" style="mix-blend-mode: multiply;isolation: isolate"/>
        <g id="Group_5054" data-name="Group 5054" transform="translate(32.778 20.721)">
          <path id="Path_4684" data-name="Path 4684" d="M1531.146,1040.09l-17.787-6.778-91.441-34.835c-2.012-.766-3.992-.32-4.737,1.068h0c-.99,1.845,1.394,2.377,4.067,3.4l89.39,34.241,17.771,6.806Z" transform="translate(-1409.295 -998.105)" fill="#24598c"/>
          <path id="Path_4685" data-name="Path 4685" d="M1389.233,1040.09l17.786-6.778,91.441-34.835c2.012-.766,3.992-.32,4.737,1.068h0c.99,1.845-1.395,2.377-4.067,3.4l-89.39,34.241-17.77,6.806Z" transform="translate(-1389.233 -998.105)" fill="#24598c"/>
        </g>
      </g>
      <g id="Group_5057" data-name="Group 5057" transform="translate(27.92 62.945)">
        <path id="Path_4686" data-name="Path 4686" d="M1428.41,909.962h-51.875a4.889,4.889,0,0,1-4.889-4.889h56.764Z" transform="translate(-1371.646 -859.186)" fill="#0d2229"/>
        <g id="Group_5056" data-name="Group 5056" transform="translate(36.827)">
          <path id="Path_4687" data-name="Path 4687" d="M1517.92,738.961h66.87a1.988,1.988,0,0,1,1.936,2.442l-10.971,46.784a1.988,1.988,0,0,1-1.936,1.534h-66.87a1.988,1.988,0,0,1-1.936-2.442l10.971-46.784A1.988,1.988,0,0,1,1517.92,738.961Z" transform="translate(-1504.96 -738.961)" fill="#0d2229"/>
          <path id="Path_4688" data-name="Path 4688" d="M1527.26,738.961h66.87a1.988,1.988,0,0,1,1.936,2.442L1585.1,788.187a1.988,1.988,0,0,1-1.936,1.534h-66.87a1.988,1.988,0,0,1-1.936-2.442l10.971-46.784A1.988,1.988,0,0,1,1527.26,738.961Z" transform="translate(-1511.72 -738.961)" fill="#0d2229"/>
          <ellipse id="Ellipse_107" data-name="Ellipse 107" cx="5.464" cy="4.331" rx="5.464" ry="4.331" transform="matrix(0.792, -0.611, 0.611, 0.792, 36.7, 26.737)" fill="#fff"/>
          <path id="Path_4689" data-name="Path 4689" d="M1515.252,790.586a.559.559,0,0,1-.127-.015.552.552,0,0,1-.409-.664l11.022-46.525a.551.551,0,0,1,1.073.254l-11.022,46.525A.551.551,0,0,1,1515.252,790.586Z" transform="translate(-1512.01 -741.854)" fill="#d7e5ee" opacity="0.5"/>
        </g>
      </g>
      <g id="Group_5060" data-name="Group 5060" transform="translate(122.563 87.029)">
        <g id="Group_5059" data-name="Group 5059" transform="translate(0 7.68)">
          <path id="Path_4691" data-name="Path 4691" d="M1723.087,868.649a.834.834,0,0,1-.2-.023l-5.743-1.393a.826.826,0,0,1-.617-.646l-2.262-11.66a.827.827,0,0,1,.835-.984l6.265.174a.827.827,0,0,1-.046,1.653l-5.234-.146,1.965,10.127,5.227,1.267a.827.827,0,0,1-.194,1.63Z" transform="translate(-1714.254 -853.944)" fill="#92bbd1"/>
        </g>
        <g id="Group_5058" data-name="Group 5058" transform="translate(4.742)">
          <path id="Path_4690" data-name="Path 4690" d="M1754.032,831.184h-19.141l3.218,25.409h12.7Z" transform="translate(-1733.932 -829.792)" fill="#d7e5ee"/>
          <rect id="Rectangle_698" data-name="Rectangle 698" width="21.058" height="3.481" fill="#92bbd1"/>
          <ellipse id="Ellipse_108" data-name="Ellipse 108" cx="2.741" cy="6.48" rx="2.741" ry="6.48" transform="translate(5.308 8.88)" fill="#92bbd1"/>
        </g>
      </g>
    </g>
    <g id="Group_5065" data-name="Group 5065" transform="translate(621.719 489.009)">
      <path id="Path_4692" data-name="Path 4692" d="M1621.269,1324.5s-8.255,2.064-8.817-2.814,9-4.69,12.381-.751,6.754,10.318,10.693,8.63.188,10.881.188,10.881-7.692,3.564-11.444-2.814A23.444,23.444,0,0,1,1621.269,1324.5Z" transform="translate(-1612.428 -1288.612)" fill="#80aac1"/>
      <g id="Group_5062" data-name="Group 5062" transform="translate(12.38)">
        <path id="Path_4694" data-name="Path 4694" d="M1719.21,1215.167a13.382,13.382,0,0,0,4.818-3.184,1.042,1.042,0,0,1,1.774.334c.894,2.5,1.828,6.858-1.112,9.647C1720.374,1226.058,1719.21,1215.167,1719.21,1215.167Z" transform="translate(-1702.092 -1211.619)" fill="#92bbd1"/>
        <path id="Path_4695" data-name="Path 4695" d="M1657.3,1236.7a3.26,3.26,0,0,1,2.581-3.546c1.78-.37,4.219-1.656,6.708-5.382,3.667-5.487,17.819-3.93,19.926,5.551s-3.233,17.992-11.4,17.728C1667.619,1250.8,1658.7,1249.364,1657.3,1236.7Z" transform="translate(-1657.267 -1221.023)" fill="#92bbd1"/>
        <path id="Path_4696" data-name="Path 4696" d="M1748.785,1230.027a13.383,13.383,0,0,0,5.5-1.752,1.042,1.042,0,0,1,1.616.8c.181,2.646-.107,7.1-3.7,8.981C1746.941,1240.824,1748.785,1230.027,1748.785,1230.027Z" transform="translate(-1723.271 -1223.546)" fill="#92bbd1"/>
        <path id="Path_4697" data-name="Path 4697" d="M1699.577,1252.245c-.545.945-.5,1.993.107,2.342s1.536-.134,2.082-1.078.5-1.993-.107-2.342S1700.122,1251.3,1699.577,1252.245Z" transform="translate(-1687.608 -1240.16)" fill="#24598c"/>
        <path id="Path_4698" data-name="Path 4698" d="M1657.246,1258.7s3.025.246,3.306-1.255c.231-1.23-.424-1.976-1.712-1.712C1657.128,1256.085,1657.246,1258.7,1657.246,1258.7Z" transform="translate(-1657.244 -1243.508)" fill="#24598c"/>
        <path id="Path_4699" data-name="Path 4699" d="M1695.12,1274.934a.45.45,0,0,1-.161-.03l-7.035-2.72a.446.446,0,1,1,.321-.831l7.035,2.72a.446.446,0,0,1-.161.861Z" transform="translate(-1679.243 -1254.829)" fill="#24598c"/>
        <path id="Path_4700" data-name="Path 4700" d="M1694.523,1285.405a.444.444,0,0,1-.3-.121l-6.1-5.721a.446.446,0,0,1,.61-.65l6.1,5.722a.446.446,0,0,1-.305.77Z" transform="translate(-1679.489 -1260.236)" fill="#24598c"/>
        <path id="Path_4701" data-name="Path 4701" d="M1682.491,1287.3a.446.446,0,0,1-.407-.265l-1.876-4.221a.446.446,0,0,1,.814-.362l1.876,4.221a.446.446,0,0,1-.407.627Z" transform="translate(-1673.836 -1262.694)" fill="#24598c"/>
      </g>
      <g id="Group_5063" data-name="Group 5063" transform="translate(20.875 23.129)">
        <path id="Path_4702" data-name="Path 4702" d="M1727.361,1352.75h-36.206s-4.126-7.877,5.627-8.443c0,0,2.063-5.061-3.939-13.13-5.926-7.958-5.636-24.51-3.284-29.99v0c.031-.071.062-.143.094-.209,2.437-5.253,17.354-5.627,17.354-5.627s-.37,1.02-.753,2.593a28.3,28.3,0,0,0-.846,6.086,16.229,16.229,0,0,0,.263,3.386,9.066,9.066,0,0,0,2.237,4.678c.04.049.085.094.129.138a15.02,15.02,0,0,0,2.762,2.1c1.515.927,3.279,1.791,5.115,2.691,1.091.539,2.214,1.087,3.324,1.675,4.785,2.522,9.365,5.712,10.751,11.357C1732.615,1340.742,1727.361,1352.75,1727.361,1352.75Z" transform="translate(-1687.993 -1295.345)" fill="#92bbd1"/>
        <path id="Path_4703" data-name="Path 4703" d="M1757.885,1409.395s-6.8.971-6.8,14.077c0,0-10.557,1.274-5.7,11.468h-5.117s-1.8-9.283,6.29-12.6C1746.559,1420.721,1750.119,1406.159,1757.885,1409.395Z" transform="translate(-1725.705 -1377.551)" fill="#92bbd1" opacity="0.61" style="mix-blend-mode: multiply;isolation: isolate"/>
        <path id="Path_4704" data-name="Path 4704" d="M1729.659,1330.15c-3.413,1.119-8.269,1.707-8.514-.245s4.634-2.789,8.252-3.141A16.237,16.237,0,0,0,1729.659,1330.15Z" transform="translate(-1711.981 -1318.085)" fill="#92bbd1" opacity="0.61" style="mix-blend-mode: multiply;isolation: isolate"/>
        <path id="Path_4705" data-name="Path 4705" d="M1751.171,1358.194c-2.459,2.5-6.1,4.99-7.191,3.475-.971-1.346,1.648-3.76,4.3-5.712.04.049.085.094.129.138A15.02,15.02,0,0,0,1751.171,1358.194Z" transform="translate(-1728.364 -1339.214)" fill="#92bbd1" opacity="0.61" style="mix-blend-mode: multiply;isolation: isolate"/>
        <path id="Path_4706" data-name="Path 4706" d="M1786,1375.471c-1.649,2.785-3.983,5.418-5.311,4.407-1.216-.922.219-3.6,1.987-6.082C1783.771,1374.335,1784.894,1374.883,1786,1375.471Z" transform="translate(-1754.758 -1352.124)" fill="#92bbd1" opacity="0.61" style="mix-blend-mode: multiply;isolation: isolate"/>
      </g>
      <g id="Group_5064" data-name="Group 5064" transform="translate(59.681 25.354)">
        <path id="Path_4707" data-name="Path 4707" d="M1866.06,1325.5a11.236,11.236,0,0,1-.067,1.372,94.64,94.64,0,0,1-1.323,9.624,34.32,34.32,0,0,1-1.7,5.734,20.589,20.589,0,0,1-6.082,8.564,18.993,18.993,0,0,1-5.351,3.034,24.254,24.254,0,0,1-4.491,1.185c-14.365,2.419-18.57-3.377-18.57-3.377l.187-4.874s8.693,5.507,16.909,1.871a14.663,14.663,0,0,0,3.351-2.063,20.722,20.722,0,0,0,1.983-1.831,18.189,18.189,0,0,0,3.471-5.1,16.331,16.331,0,0,0,1.435-6.086,15.609,15.609,0,0,0-.842-5.667,14.449,14.449,0,0,0-3.319-5.409c-.031-.036-.062-.067-.1-.1-5.814-5.814-10.319-14.258-1.876-18.383,6.585-3.221,13.4,7.369,15.63,16.191A22.592,22.592,0,0,1,1866.06,1325.5Z" transform="translate(-1828.473 -1303.4)" fill="#92bbd1"/>
        <path id="Path_4708" data-name="Path 4708" d="M1926.773,1369.471a37.786,37.786,0,0,1-11.094,2.384,14.448,14.448,0,0,0-3.319-5.409c3.493-1.448,9.45-2.054,13.656-2.295A22.606,22.606,0,0,1,1926.773,1369.471Z" transform="translate(-1889.186 -1347.369)" fill="#92bbd1" opacity="0.61" style="mix-blend-mode: multiply;isolation: isolate"/>
        <path id="Path_4709" data-name="Path 4709" d="M1932.527,1415.5a34.32,34.32,0,0,1-1.7,5.734,37.72,37.72,0,0,1-8.595-2.593,16.33,16.33,0,0,0,1.435-6.086A52.687,52.687,0,0,1,1932.527,1415.5Z" transform="translate(-1896.33 -1382.401)" fill="#92bbd1" opacity="0.61" style="mix-blend-mode: multiply;isolation: isolate"/>
        <path id="Path_4710" data-name="Path 4710" d="M1901.676,1459.109a19,19,0,0,1-5.351,3.034,38.685,38.685,0,0,1-5.966-5.2,14.668,14.668,0,0,0,3.351-2.063,20.764,20.764,0,0,0,1.983-1.831A71.45,71.45,0,0,1,1901.676,1459.109Z" transform="translate(-1873.264 -1411.713)" fill="#92bbd1" opacity="0.61" style="mix-blend-mode: multiply;isolation: isolate"/>
      </g>
    </g>
  </g>
</svg>
